<?xml version='1.0' encoding='iso-8859-1'?>
<!DOCTYPE svg PUBLIC '-//W3C//DTD SVG 1.1//EN' 'http://www.w3.org/Graphics/SVG/1.1/DTD/svg11.dtd'>
<svg fill="#000000" height="800px" width="800px" version="1.1" xmlns="http://www.w3.org/2000/svg" viewBox="0 0 451.811 451.811" xmlns:xlink="http://www.w3.org/1999/xlink" enable-background="new 0 0 451.811 451.811">
  <path d="m439.311,198.937h-187.754v-24.349l126.079-66.192v35.894c0,6.903 5.597,12.5 12.5,12.5s12.5-5.597 12.5-12.5c0,0-0.005-56.606-0.005-56.622-0.004-0.977-0.116-1.964-0.358-2.945-1.377-5.584-6.386-9.508-12.137-9.508h-151.079c-6.903,0-12.5,5.597-12.5,12.5v111.221h-28.706v-46.252c0-6.904-5.597-12.5-12.5-12.5h-103.871c-5.373,0-10.145,3.434-11.853,8.528l-24.301,72.511-38.043,17.472c-4.438,2.038-7.283,6.475-7.283,11.359v70.31c0,6.903 5.597,12.5 12.5,12.5h41.696c1.546,24.373 21.855,43.731 46.61,43.731 24.757,0 45.067-19.361 46.611-43.735h170.928c1.544,24.374 21.854,43.735 46.611,43.735s45.067-19.361 46.611-43.735h27.744c6.903,0 12.5-5.596 12.5-12.5v-108.923c-5.68434e-14-6.904-5.597-12.5-12.5-12.5zm-187.754-98.722h87.879l-87.879,46.136v-46.136zm-161.082,64.969h24.871v52.637h-42.512l17.641-52.637zm-65.475,92.885l33.2-15.248h69.646c6.903,0 12.5-5.596 12.5-12.5v-65.137h32.505v142.676h-30.857c-7.883-14.686-23.386-24.697-41.187-24.697-17.803,0-33.307,10.013-41.189,24.701h-34.618v-49.795zm75.807,93.526c-11.975,0-21.716-9.742-21.716-21.716s9.741-21.716 21.716-21.716 21.716,9.742 21.716,21.716-9.742,21.716-21.716,21.716zm264.149,0c-11.975,0-21.716-9.742-21.716-21.716s9.741-21.716 21.716-21.716 21.716,9.742 21.716,21.716-9.741,21.716-21.716,21.716zm61.855-43.735h-20.667c-7.883-14.686-23.386-24.697-41.187-24.697s-33.304,10.011-41.187,24.697h-125.919v-83.924h228.96v83.924z"/>
</svg>