<?xml version="1.0" encoding="utf-8"?>
<!-- Generator: Adobe Illustrator 24.0.2, SVG Export Plug-In . SVG Version: 6.00 Build 0)  -->
<svg version="1.1" id="Слой_1" xmlns="http://www.w3.org/2000/svg" xmlns:xlink="http://www.w3.org/1999/xlink" x="0px" y="0px"
	 width="65px" height="50.479px" viewBox="0 0 65 50.479" style="enable-background:new 0 0 65 50.479;" xml:space="preserve">
<style type="text/css">
	.st0{fill:url(#SVGID_1_);}
	.st1{fill:url(#SVGID_2_);}
	.st2{fill:url(#SVGID_3_);}
	.st3{fill:url(#SVGID_4_);}
	.st4{fill:#F9E817;}
	.st5{fill:#4D4847;}
</style>
<g>
	
		<linearGradient id="SVGID_1_" gradientUnits="userSpaceOnUse" x1="36.3853" y1="35.0325" x2="54.6278" y2="24.4103" gradientTransform="matrix(1 0 0 -1 0 51.4793)">
		<stop  offset="0" style="stop-color:#FFB000"/>
		<stop  offset="1" style="stop-color:#FFFF00"/>
	</linearGradient>
	<path class="st0" d="M21.793,36.622c4.667-0.095,9.333-0.024,14-0.024c0.166,0,0.332,0,0.497,0.024
		c0.924,0,19.519-0.024,20.466-0.024c0,0.474,0,4.264,0,4.264c-0.498-1.09-1.54-1.753-2.416-2.132
		c0.379,0.639,0.592,1.35,0.592,2.132c0,1.871-1.303,3.529-3.056,4.074c2.108,0.403,4.003,0.876,5.709,1.398
		c0.047,0,0.071,0.024,0.118,0.024c0.024,0,0.047,0.024,0.071,0.024s0.047,0.024,0.071,0.024L58.178,0L40.625,15.089l12.839-5.377
		l-0.118,2.653l-18.548,7.722l-10.186,8.741c0,0.332,0,0.663,0,1.042c0,0-0.047-0.403-0.284-0.805l-0.332,0.284
		c0.403,0.568,0.403,1.445,0.569,2.203c0.545,2.463,0.047,2.179,2.629,2.203c9.286,0.024,18.571,0,27.881,0c0.545,0,1.09,0,1.682,0
		c0,0.592,0,1.042,0,1.587c-11.726,0-23.451,0-35.295,0c0-1.421,0-2.677,0-3.814l-1.35,1.161c0,0.734,0,1.492-0.024,2.227
		C20.111,36.195,20.443,36.645,21.793,36.622z M53.227,12.792v4.311l-0.521-0.142l-0.024-3.932L53.227,12.792z M51.853,13.289
		l-0.024,3.719l-0.497,0.166l-0.024-3.672L51.853,13.289z M51.214,18.098c0-0.071,0.024-0.142,0.047-0.213
		c0.047-0.118,0.095-0.213,0.19-0.284c0.166-0.166,0.426-0.284,0.711-0.284h0.189c0.047,0,0.119,0,0.166,0.024l-1.066,0.9h-0.047
		l-0.189,0.166V18.098z M51.214,19.306l1.871-1.611l0.024-0.024c0.095,0.118,0.142,0.284,0.142,0.426v0.047v0.213l-1.848,1.587
		c-0.118-0.142-0.189-0.308-0.189-0.474V19.306z M52.232,23.901c-0.805,0-1.445-0.568-1.445-1.255c0-0.142,0.024-0.261,0.071-0.379
		c0.024-0.071,0.047-0.142,0.095-0.19l0.521,0.45c0,0.284,0.284,0.545,0.64,0.545c0.189,0,0.379-0.071,0.497-0.213
		c0.047-0.047,0.095-0.095,0.095-0.166c0.024-0.047,0.024-0.118,0.024-0.166c0-0.024,0-0.024,0-0.047c0-0.071,0-0.142-0.024-0.237
		l-0.592-1.966c-0.024,0-0.024,0-0.047,0l1.208-1.019v0.237c0,0.355-0.26,0.663-0.639,0.758l0.924,1.871
		c0.024,0.047,0.047,0.095,0.071,0.166c0.047,0.118,0.071,0.26,0.071,0.403C53.677,23.333,53.037,23.901,52.232,23.901z"/>
	
		<linearGradient id="SVGID_2_" gradientUnits="userSpaceOnUse" x1="23.5885" y1="12.9033" x2="41.8893" y2="2.247" gradientTransform="matrix(1 0 0 -1 0 51.4793)">
		<stop  offset="0" style="stop-color:#FFB000"/>
		<stop  offset="1" style="stop-color:#FFFF00"/>
	</linearGradient>
	<path class="st1" d="M36.859,40.649c0.047-0.805,0.332-1.563,0.758-2.203c-1.137,0.829-2.037,1.919-2.369,2.7
		c-4.453,0-9.025,0-13.668,0c-0.559-2.546-1.511-3.369-2.866-3.553c0.914,0.788,1.42,1.967,1.398,3.293
		c0,1.279-0.545,2.392-1.398,3.15c2.937-0.355,5.993-0.592,9.262-0.711c0.26,0,0.497-0.024,0.758-0.024c0.024,0,0.047,0,0.071,0
		c0.663-0.024,1.303-0.024,1.966-0.047c0.166,0,0.355,0,0.521,0s0.332,0,0.521,0c0.095,0,0.213,0,0.308,0c0.095,0,0.213,0,0.308,0
		c0.095,0,0.213,0,0.308,0c1.634,0,3.364,0.047,4.951,0.095C37.214,42.591,36.811,41.667,36.859,40.649z"/>
	
		<linearGradient id="SVGID_3_" gradientUnits="userSpaceOnUse" x1="20.3064" y1="7.4188" x2="38.5488" y2="-3.2033" gradientTransform="matrix(1 0 0 -1 0 51.4793)">
		<stop  offset="0" style="stop-color:#FFB000"/>
		<stop  offset="1" style="stop-color:#FFFF00"/>
	</linearGradient>
	<path class="st2" d="M15.871,43.373c0.948,0.024,1.777-0.521,2.203-1.303c-0.403,0.308-0.924,0.474-1.492,0.474
		c-1.35,0-2.44-1.042-2.44-2.321c0-0.616,0.261-1.184,0.663-1.587c-0.782,0.426-1.374,1.256-1.398,2.156
		C13.408,42.117,14.568,43.349,15.871,43.373z"/>
	
		<linearGradient id="SVGID_4_" gradientUnits="userSpaceOnUse" x1="26.5753" y1="18.2269" x2="44.8188" y2="7.6041" gradientTransform="matrix(1 0 0 -1 0 51.4793)">
		<stop  offset="0" style="stop-color:#FFB000"/>
		<stop  offset="1" style="stop-color:#FFFF00"/>
	</linearGradient>
	<path class="st3" d="M41.028,43.373c0.948,0,1.824-0.616,2.227-1.469c-0.45,0.403-1.042,0.64-1.682,0.64
		c-1.35,0-2.44-1.042-2.44-2.321c0-0.545,0.19-1.019,0.521-1.421c-0.663,0.474-1.137,1.232-1.137,2.061
		C38.517,42.165,39.701,43.373,41.028,43.373z"/>
	<path class="st4" d="M50.844,43.359c0.946-0.06,1.781-0.73,2.13-1.606c-0.424,0.43-1,0.704-1.638,0.744
		c-1.348,0.085-2.501-0.886-2.581-2.163c-0.034-0.544,0.125-1.029,0.431-1.451c-0.632,0.515-1.057,1.301-1.005,2.128
		C48.262,42.312,49.52,43.443,50.844,43.359z"/>
	<path class="st4" d="M24.612,24.778c0,0,0-0.45,0.024,4.027l10.186-8.741l-10.186,4.24C24.612,24.47,24.612,24.636,24.612,24.778z"
		/>
	<path class="st4" d="M13.265,37.546c-1.374,0.237-2.298,1.018-2.89,3.529l-0.071,0.071c-1.042,0-2.108,0-3.411,0
		c0-1.611,0.095-3.222-0.024-4.785C6.49,31.576,7.414,26.981,8.93,22.48c0.332-0.971,0.734-1.374,1.777-1.35
		c2.653,0.071,5.33,0.095,7.983,0c1.255-0.047,1.516,0.45,1.492,1.563c-0.047,3.316,0,6.656-0.024,9.973l1.35-1.161
		c0-5.14,0-7.533,0-8.765c0.166,0,0.426,0,0.592-0.024c0.047,1.184,0.047,4.643,0.047,6.088c1.042-0.166,1.587,0.071,1.895,0.497
		l0.332-0.284c-0.261-0.498-0.758-1.019-1.706-1.019v-5.401c0.024,0,0.024,0,0.047,0l17.932-7.509L58.178,0L5.519,18.311v26.933
		l6.325-5.425C12.081,38.919,12.578,38.114,13.265,37.546z"/>
	<path class="st4" d="M15.587,22.93c-1.706-0.095-3.411-0.095-5.117,0c-0.379,0.024-0.355,0.261-0.474,0.616
		c-0.64,1.942-1.137,3.577-1.587,6.206c3.079,0,5.164,0,8.125,0c0-2.085,0.047-4.027-0.047-5.969
		C16.463,23.451,15.918,22.93,15.587,22.93z"/>
	<path class="st5" d="M57.799,46.381c-0.024,0-0.047-0.024-0.071-0.024c-0.047,0-0.071-0.024-0.118-0.024
		c-1.682-0.521-3.601-0.995-5.709-1.398c1.729-0.545,3.056-2.179,3.056-4.074c0-0.782-0.213-1.492-0.592-2.132
		c0.876,0.379,1.919,1.042,2.416,2.132c0,0,0-3.814,0-4.264c-0.971,0-19.543,0.024-20.466,0.024c-0.166,0-0.332-0.024-0.498-0.024
		c-4.667,0-9.333-0.071-14,0.024c-1.374,0.024-1.705-0.426-1.682-1.706c0.024-0.734,0.024-1.492,0.024-2.227
		c0.024-3.316-0.024-6.656,0.024-9.973c0.024-1.137-0.237-1.611-1.492-1.563c-2.653,0.095-5.33,0.071-7.983,0
		c-1.042-0.024-1.469,0.355-1.777,1.35C7.414,27.028,6.514,31.6,6.87,36.385c0.118,1.587,0.024,3.174,0.024,4.785
		c1.303,0,2.369,0,3.411,0l0.071-0.071c0.616-2.511,1.54-3.293,2.89-3.529c-0.687,0.568-1.184,1.35-1.421,2.25
		c-0.095,0.355-0.142,0.711-0.142,1.09c0,1.682,1.019,3.15,2.464,3.814c0,0,0,0,0.024,0c-0.734,0.118-1.445,0.261-2.132,0.403
		c-1.895,0.403-4.311,1.018-6.491,1.824c-0.024,0-0.024,0-0.047,0.024c-0.118,0.047-0.213,0.071-0.332,0.118
		C2.629,48.087,0.829,49.248,0,50.479c6.87-3.222,18.856-5.377,32.5-5.377s25.631,2.132,32.5,5.377
		C63.958,48.939,61.423,47.542,57.799,46.381z M49.129,38.943c-0.261,0.379-0.403,0.805-0.403,1.279c0,1.279,1.09,2.321,2.44,2.321
		c0.734,0,1.374-0.308,1.824-0.782c-0.379,0.9-1.279,1.587-2.274,1.611c-1.303,0.024-2.511-1.184-2.535-2.487
		C48.158,40.128,48.561,39.417,49.129,38.943z M44.77,38.801c0.521,0.142,0.876,0.26,0.947,0.355
		c0.095-0.118,0.592-0.308,1.35-0.497c-0.379,0.616-0.592,1.327-0.616,2.085c-0.024,1.445,0.711,2.748,1.8,3.553
		c-0.024,0-0.047,0-0.095-0.024c-1.303-0.189-2.677-0.355-4.074-0.497c0.711-0.734,1.184-1.729,1.232-2.843
		C45.315,40.199,45.126,39.464,44.77,38.801z M39.654,38.801c-0.332,0.403-0.521,0.876-0.521,1.421c0,1.279,1.09,2.321,2.44,2.321
		c0.663,0,1.256-0.237,1.682-0.64c-0.403,0.853-1.279,1.469-2.227,1.469c-1.303,0-2.511-1.184-2.511-2.511
		C38.517,40.056,38.991,39.275,39.654,38.801z M8.409,29.729c0.45-2.629,0.948-4.264,1.587-6.206
		c0.118-0.355,0.095-0.592,0.474-0.616c1.706-0.071,3.411-0.071,5.117,0c0.332,0.024,0.876,0.521,0.9,0.829
		c0.071,1.942,0.047,3.908,0.047,5.969C13.573,29.729,11.489,29.729,8.409,29.729z M13.431,40.814
		c0.024-0.924,0.592-1.753,1.398-2.156c-0.426,0.426-0.663,0.971-0.663,1.587c0,1.279,1.09,2.321,2.44,2.321
		c0.568,0,1.066-0.19,1.492-0.474c-0.426,0.782-1.279,1.303-2.203,1.303C14.568,43.349,13.407,42.117,13.431,40.814z M32.5,43.254
		c-0.095,0-0.213,0-0.308,0c-0.284,0-0.569,0-0.829,0c-0.166,0-0.355,0-0.521,0c-0.663,0-1.326,0.024-1.966,0.047
		c-0.024,0-0.047,0-0.071,0c-0.261,0-0.498,0.024-0.758,0.024c-3.269,0.118-6.372,0.355-9.262,0.711
		c0.853-0.758,1.374-1.871,1.398-3.15c0-1.35-0.568-2.511-1.469-3.293c1.374,0.261,2.321,1.066,2.866,3.553
		c4.643,0,9.286,0,13.739,0c0.332-0.782,1.161-1.871,2.298-2.7c-0.45,0.64-0.734,1.398-0.758,2.203
		c-0.047,0.995,0.284,1.942,0.829,2.701C35.958,43.278,34.253,43.254,32.5,43.254z"/>
	<path class="st5" d="M53.251,19.472v-0.237l-1.208,1.019c0.024,0,0.024,0,0.047,0l0.592,1.966c0.024,0.071,0.024,0.166,0.024,0.237
		c0,0.024,0,0.024,0,0.047c0,0.071-0.024,0.118-0.024,0.166c-0.024,0.071-0.047,0.118-0.095,0.166
		c-0.118,0.118-0.284,0.213-0.497,0.213c-0.355,0-0.616-0.237-0.64-0.545l-0.521-0.45c-0.047,0.071-0.071,0.118-0.095,0.189
		c-0.047,0.119-0.071,0.237-0.071,0.379c0,0.687,0.64,1.255,1.445,1.255s1.445-0.569,1.445-1.255c0-0.142-0.024-0.284-0.071-0.403
		c-0.024-0.047-0.047-0.118-0.071-0.166l-0.924-1.871C52.99,20.111,53.251,19.827,53.251,19.472z"/>
	<path class="st5" d="M51.214,18.098v0.308l0.189-0.166h0.024v-0.024l1.066-0.9c-0.047,0-0.119-0.024-0.166-0.024h-0.189
		c-0.284,0-0.545,0.118-0.711,0.284c-0.071,0.095-0.142,0.19-0.189,0.284C51.214,17.956,51.214,18.027,51.214,18.098z"/>
	<path class="st5" d="M51.214,19.472c0,0.19,0.071,0.355,0.189,0.474l1.848-1.587v-0.213v-0.047c0-0.166-0.047-0.308-0.142-0.426
		l-0.024,0.024l-1.871,1.611V19.472z"/>
	<path class="st5" d="M53.227,12.792l-0.569,0.213l0.024,3.932l0.545,0.142V12.792z"/>
	<path class="st5" d="M51.853,13.289l-0.545,0.213l0.024,3.672l0.497-0.166L51.853,13.289z"/>
	<path class="st5" d="M24.351,29.065c0.237,0.426,0.284,0.805,0.284,0.805c0-0.379,0-0.734,0-1.042
		c-0.024-4.477-0.024-4.027-0.024-4.027c0-0.142,0-0.308,0-0.45l10.186-4.24l18.548-7.722l0.118-2.653l-12.839,5.377l-17.932,7.485
		c-0.024,0-0.024,0-0.047,0v5.425C23.593,28.047,24.091,28.568,24.351,29.065z"/>
	<path class="st5" d="M56.78,33.732c-0.616,0-1.137,0-1.682,0c-9.286,0-18.571,0-27.881,0c-2.582,0-2.084,0.284-2.629-2.203
		c-0.166-0.758-0.166-1.634-0.569-2.203c-0.308-0.426-0.853-0.663-1.895-0.497c0-1.445,0-4.903-0.047-6.088
		c-0.166,0-0.426,0-0.592,0.024c0,1.232,0,3.624,0,8.765c0,1.137,0,2.392,0,3.814c11.844,0,23.57,0,35.295,0
		C56.78,34.774,56.78,34.348,56.78,33.732z"/>
	<path class="st4" d="M44.77,38.801c0.192,0.368,0.708,1.465,0.474,2.748c-0.123,0.672-0.416,1.206-0.484,1.326
		c-0.226,0.401-0.479,0.698-0.677,0.9c1.39,0.174,2.779,0.347,4.169,0.521c-0.233-0.167-1.507-1.116-1.754-2.867
		c-0.197-1.398,0.381-2.455,0.57-2.771c-0.486,0.112-0.843,0.222-0.987,0.278c-0.172,0.067-0.277,0.148-0.299,0.165
		c-0.028,0.022-0.05,0.041-0.064,0.054c-0.02-0.017-0.052-0.043-0.095-0.071c-0.074-0.047-0.139-0.072-0.384-0.149
		c-0.074-0.023-0.117-0.036-0.186-0.057C44.936,38.846,44.839,38.82,44.77,38.801z"/>
</g>
</svg>
